<svg xmlns="http://www.w3.org/2000/svg" width="29" height="29" viewBox="0 0 29 29" fill="none">
    <path d="M3.65686 12.2669L7.02086 13.6522C6.64157 14.6031 6.33902 15.5825 6.11606 16.5811L5.98846 17.1571L10.8112 21.9494L11.3912 21.8256C12.3967 21.6042 13.3829 21.3037 14.3405 20.927L15.7354 24.2678C15.749 24.301 15.7708 24.3302 15.7986 24.3529C15.8265 24.3756 15.8596 24.391 15.8949 24.3979C15.9303 24.4048 15.9668 24.4028 16.0013 24.3921C16.0357 24.3815 16.0669 24.3625 16.0921 24.337L18.2004 22.2432C18.5444 21.9016 18.8125 21.492 18.9874 21.0411C19.1622 20.5902 19.2399 20.1079 19.2154 19.6253L19.14 18.2803C23.0434 15.4176 26.9932 10.3978 28.0691 1.6368C28.0996 1.41715 28.0786 1.19346 28.0078 0.983176C27.9369 0.772892 27.8182 0.581695 27.6607 0.424485C27.5032 0.267276 27.3114 0.148303 27.1 0.0768385C26.8886 0.00537431 26.6635 -0.0166499 26.4422 0.0124826C17.6233 1.0896 12.5657 5.01504 9.68306 8.88L8.33166 8.81088C7.84678 8.78468 7.36175 8.85955 6.90775 9.03067C6.45375 9.20179 6.04084 9.46538 5.69556 9.80448L3.58726 11.8982C3.55805 11.9229 3.53593 11.9548 3.52312 11.9907C3.51032 12.0266 3.5073 12.0652 3.51437 12.1026C3.52143 12.14 3.53833 12.1749 3.56336 12.2038C3.58838 12.2326 3.62064 12.2544 3.65686 12.2669ZM17.1825 7.16352C17.5478 6.80193 18.0129 6.55596 18.519 6.45667C19.025 6.35739 19.5493 6.40924 20.0257 6.60569C20.5021 6.80214 20.9092 7.13436 21.1956 7.56042C21.482 7.98648 21.6348 8.48726 21.6348 8.99952C21.6348 9.51179 21.482 10.0126 21.1956 10.4386C20.9092 10.8647 20.5021 11.1969 20.0257 11.3934C19.5493 11.5898 19.025 11.6417 18.519 11.5424C18.0129 11.4431 17.5478 11.1971 17.1825 10.8355C16.9391 10.5947 16.7461 10.3086 16.6143 9.99352C16.4826 9.67846 16.4148 9.34067 16.4148 8.99952C16.4148 8.65838 16.4826 8.32059 16.6143 8.00553C16.7461 7.69047 16.9391 7.40433 17.1825 7.16352ZM3.02756 22.3325C2.46932 22.1379 1.86985 22.0903 1.28756 22.1942C1.23581 22.2054 1.18207 22.2033 1.13135 22.1882C1.08064 22.173 1.03461 22.1454 0.997565 22.1078C0.951642 22.0624 0.920892 22.0041 0.909479 21.9407C0.898067 21.8773 0.906545 21.812 0.933765 21.7536C1.55146 20.4346 3.18996 17.7821 6.15666 19.9248C6.17216 19.9386 6.18456 19.9554 6.19305 19.9743C6.20153 19.9932 6.20592 20.0136 6.20592 20.0342C6.20592 20.0549 6.20153 20.0753 6.19305 20.0942C6.18456 20.113 6.17216 20.1299 6.15666 20.1437C5.75948 20.4543 5.44149 20.8534 5.22838 21.3087C5.01528 21.764 4.91305 22.2627 4.92996 22.7645C4.93212 22.8234 4.95665 22.8793 4.99861 22.921C5.04057 22.9626 5.09686 22.987 5.15616 22.9891C5.65929 23.0092 6.16015 22.9118 6.61848 22.7047C7.07682 22.4976 7.47984 22.1867 7.79516 21.7968C7.80903 21.7799 7.82651 21.7663 7.84632 21.757C7.86613 21.7477 7.88779 21.7428 7.90971 21.7428C7.93164 21.7428 7.9533 21.7477 7.97311 21.757C7.99292 21.7663 8.01039 21.7799 8.02426 21.7968C8.43606 22.2835 9.56996 23.8733 8.31426 25.4083C7.76607 26.0627 6.98061 26.4765 6.12766 26.5603C4.90966 26.6899 2.65926 27.0845 1.73996 28.127C1.70306 28.1705 1.65498 28.2031 1.60086 28.2215C1.54673 28.24 1.48858 28.2434 1.43262 28.2316C1.37666 28.2198 1.32498 28.1931 1.28309 28.1544C1.2412 28.1157 1.21067 28.0664 1.19476 28.0118C0.869965 26.9117 0.365365 24.4522 3.02756 22.3325Z" fill="url(#paint0_linear_8604_4976)"/>
    <defs>
    <linearGradient id="paint0_linear_8604_4976" x1="0.904541" y1="8.61274" x2="28.7243" y2="10.9911" gradientUnits="userSpaceOnUse">
    <stop stop-color="#C5FFAA"/>
    <stop offset="1" stop-color="#00BAC6"/>
    </linearGradient>
    </defs>
</svg>
    